<svg width="200" height="200" viewBox="0 0 200 200" fill="none" xmlns="http://www.w3.org/2000/svg">
<path d="M0 14.3266C0 6.41875 6.62031 0 14.7813 0H185.219C193.383 0 200 6.41875 200 14.3266V185.676C200 193.586 193.383 200 185.219 200H14.7813C6.62109 200 0 193.587 0 185.678V14.3242V14.3266Z" fill="#403836"/>
<path d="M60.7781 167.374V77.3329H30.85V167.374H60.7813H60.7781ZM45.8203 65.0415C56.2547 65.0415 62.7508 58.1274 62.7508 49.4868C62.5555 40.6493 56.2547 33.9282 46.0187 33.9282C35.7758 33.9282 29.0859 40.6493 29.0859 49.486C29.0859 58.1267 35.5797 65.0407 45.6242 65.0407H45.818L45.8203 65.0415ZM77.3438 167.374H107.27V117.096C107.27 114.409 107.465 111.714 108.255 109.795C110.418 104.416 115.342 98.8477 123.612 98.8477C134.438 98.8477 138.772 107.104 138.772 119.209V167.374H168.697V115.747C168.697 88.0915 153.934 75.222 134.245 75.222C118.102 75.222 111.012 84.2446 107.073 90.3899H107.272V77.336H77.3453C77.7359 85.7829 77.343 167.377 77.343 167.377L77.3438 167.374Z" fill="#F2EBDC"/>
</svg>
