<svg width="200" height="163" viewBox="0 0 200 163" fill="none" xmlns="http://www.w3.org/2000/svg">
<path d="M62.898 162.567C138.373 162.567 179.648 100.029 179.648 45.7983C179.648 44.0223 179.612 42.2544 179.532 40.4938C187.563 34.6817 194.494 27.4854 200 19.2422C192.648 22.5114 184.736 24.7118 176.436 25.7039C184.908 20.6232 191.411 12.5855 194.48 3.00464C186.425 7.78368 177.613 11.1526 168.424 12.9663C160.936 4.98918 150.276 0 138.472 0C115.812 0 97.4362 18.379 97.4362 41.0339C97.4362 44.2548 97.7967 47.3866 98.5008 50.3917C64.3972 48.6754 34.1565 32.3447 13.9179 7.51303C10.2727 13.7761 8.35542 20.8941 8.36179 28.1403C8.36179 42.3787 15.6057 54.948 26.622 62.3017C20.1057 62.1027 13.7325 60.3423 8.03821 57.1687C8.03211 57.341 8.03211 57.5088 8.03211 57.6929C8.03211 77.568 22.176 94.1624 40.9516 97.9225C37.4253 98.8831 33.7865 99.3687 30.1317 99.3666C27.4923 99.3666 24.9199 99.1068 22.4199 98.6269C27.6439 114.933 42.7919 126.799 60.7516 127.131C46.7073 138.14 29.0159 144.698 9.7878 144.698C6.51687 144.701 3.2486 144.511 0 144.129C18.1602 155.771 39.7236 162.564 62.9 162.564" fill="#403836"/>
</svg>
