<svg width="200" height="145" viewBox="0 0 200 145" fill="none" xmlns="http://www.w3.org/2000/svg">
<g clip-path="url(#clip0_102_45)">
<path d="M183.589 0.0107422C192.6 0.0107422 199.974 7.38388 199.974 16.395V21.1448L177.21 37.405L99.7138 90.7886L22.2173 36.8634V144.709H16.3845C7.3733 144.709 0 137.336 0 128.325V16.3996C0 7.38827 7.3733 0.0151269 16.3845 0.0151269L99.7138 61.7973L183.585 0.0151269L183.589 0.0107422V0.0107422Z" fill="#F2EBDC"/>
<path d="M16.3845 0.0107422L99.7138 61.7929L183.589 0.0107422H16.3845Z" fill="url(#paint0_linear_102_45)"/>
<path d="M22.2173 36.8635V144.709H177.215V37.405L99.7137 90.7886L22.2173 36.8635Z" fill="#403836"/>
<path d="M22.2173 144.709L99.7137 90.7886L99.363 90.5403L22.2173 143.524V144.709Z" fill="#403836"/>
<path d="M177.215 37.405L177.259 144.709L99.7139 90.7886L177.215 37.405Z" fill="#403836"/>
<path d="M199.973 21.1448L200 128.338C199.609 140.253 194.447 144.505 177.259 144.705L177.215 37.4005L199.978 21.1404L199.973 21.1448V21.1448Z" fill="#F2EBDC"/>
<path d="M16.3845 0.0107422L99.7138 61.7929L183.589 0.0107422H16.3845Z" fill="url(#paint1_linear_102_45)"/>
<path d="M16.3845 0.0107422L99.7138 61.7929L183.589 0.0107422H16.3845Z" fill="url(#paint2_linear_102_45)"/>
<path d="M16.3845 0.0107422L99.7138 61.7929L183.589 0.0107422H16.3845Z" fill="url(#paint3_linear_102_45)"/>
<path d="M16.3845 0.0107422L99.7138 61.7929L183.589 0.0107422H16.3845Z" fill="url(#paint4_linear_102_45)"/>
<path d="M16.3845 0.0107422L99.7138 61.7929L183.589 0.0107422H16.3845Z" fill="url(#paint5_linear_102_45)"/>
<path d="M16.3845 0.0107422L99.7138 61.7929L183.589 0.0107422H16.3845Z" fill="url(#paint6_linear_102_45)"/>
<path d="M16.3845 0.0107422L99.7138 61.7929L183.589 0.0107422H16.3845Z" fill="url(#paint7_linear_102_45)"/>
<path d="M16.3845 0.0107422L99.7138 61.7929L183.589 0.0107422H16.3845Z" fill="#403836"/>
</g>
<rect x="0.5" y="0.5" width="199" height="143.72" stroke="#403836"/>
<defs>
<linearGradient id="paint0_linear_102_45" x1="46.4682" y1="30.9072" x2="153.302" y2="30.9072" gradientUnits="userSpaceOnUse">
<stop stop-color="#F8F6EF"/>
<stop offset="1" stop-color="#E7E4D6"/>
</linearGradient>
<linearGradient id="paint1_linear_102_45" x1="46.4682" y1="30.9072" x2="153.302" y2="30.9072" gradientUnits="userSpaceOnUse">
<stop stop-color="#F8F6EF"/>
<stop offset="1" stop-color="#E7E4D6"/>
</linearGradient>
<linearGradient id="paint2_linear_102_45" x1="46.4682" y1="30.9072" x2="153.302" y2="30.9072" gradientUnits="userSpaceOnUse">
<stop stop-color="#F8F6EF"/>
<stop offset="1" stop-color="#E7E4D6"/>
</linearGradient>
<linearGradient id="paint3_linear_102_45" x1="46.4682" y1="30.9072" x2="153.302" y2="30.9072" gradientUnits="userSpaceOnUse">
<stop stop-color="#F8F6EF"/>
<stop offset="1" stop-color="#E7E4D6"/>
</linearGradient>
<linearGradient id="paint4_linear_102_45" x1="46.4682" y1="30.9072" x2="153.302" y2="30.9072" gradientUnits="userSpaceOnUse">
<stop stop-color="#F8F6EF"/>
<stop offset="1" stop-color="#E7E4D6"/>
</linearGradient>
<linearGradient id="paint5_linear_102_45" x1="46.4682" y1="30.9072" x2="153.302" y2="30.9072" gradientUnits="userSpaceOnUse">
<stop stop-color="#F8F6EF"/>
<stop offset="1" stop-color="#E7E4D6"/>
</linearGradient>
<linearGradient id="paint6_linear_102_45" x1="46.4682" y1="30.9072" x2="153.302" y2="30.9072" gradientUnits="userSpaceOnUse">
<stop stop-color="#F8F6EF"/>
<stop offset="1" stop-color="#E7E4D6"/>
</linearGradient>
<linearGradient id="paint7_linear_102_45" x1="46.4682" y1="30.9072" x2="153.302" y2="30.9072" gradientUnits="userSpaceOnUse">
<stop stop-color="#F8F6EF"/>
<stop offset="1" stop-color="#E7E4D6"/>
</linearGradient>
<clipPath id="clip0_102_45">
<rect width="200" height="144.72" fill="white"/>
</clipPath>
</defs>
</svg>
