<svg width="110" height="123" viewBox="0 0 110 123" fill="none" xmlns="http://www.w3.org/2000/svg">
<g clip-path="url(#clip0_35_314)">
<path d="M107.925 56.0196L59.8984 2.31958C57.1343 -0.773194 52.6483 -0.773194 49.8807 2.31958L39.9077 13.4713L52.5589 27.6177C55.4989 26.5069 58.8702 27.2521 61.2137 29.8725C63.5684 32.5098 64.2301 36.3118 63.2126 39.6097L75.405 53.2435C78.3548 52.1072 81.7584 52.8423 84.1143 55.481C87.407 59.1614 87.407 65.1265 84.1143 68.8092C80.8208 72.4925 75.4862 72.4925 72.1909 68.8092C69.7142 66.0369 69.1023 61.9698 70.3562 58.558L58.9858 45.8438L58.9845 79.3022C59.8087 79.7579 60.5616 80.3599 61.2137 81.0847C64.5064 84.7651 64.5064 90.7306 61.2137 94.4163C57.9202 98.0977 52.583 98.0977 49.2942 94.4163C46.0015 90.7306 46.0015 84.7656 49.2942 81.0852C50.0832 80.2024 51.021 79.5033 52.0532 79.0283V45.2581C51.0195 44.7863 50.0812 44.0868 49.2942 43.2012C46.7994 40.4155 46.1996 36.3224 47.4779 32.8971L35.0066 18.9505L2.07539 55.7712C-0.691797 58.8669 -0.691797 63.8835 2.07539 66.9767L50.1033 120.678C52.8683 123.771 57.3534 123.771 60.1219 120.678L107.925 67.2261C110.691 64.1319 110.691 59.1124 107.925 56.0196" fill="#D94141"/>
</g>
<defs>
<clipPath id="clip0_35_314">
<rect width="110" height="123" fill="white"/>
</clipPath>
</defs>
</svg>
