<svg width="110" height="125" viewBox="0 0 110 125" fill="none" xmlns="http://www.w3.org/2000/svg">
<g clip-path="url(#clip0_12_206)">
<path fill-rule="evenodd" clip-rule="evenodd" d="M65.56 14.237L90.9743 28.9803C91.708 28.2002 92.55 27.5308 93.4742 26.9926C98.7447 23.9481 105.468 25.7557 108.529 31.0517C111.559 36.3476 109.76 43.1018 104.489 46.1778C103.572 46.7086 102.583 47.1041 101.554 47.3521V76.8494C102.572 77.0979 103.55 77.4906 104.458 78.0159C109.76 81.0919 111.559 87.8466 108.498 93.1425C105.468 98.438 98.7134 100.246 93.4424 97.2015C92.4213 96.6129 91.5014 95.8626 90.7182 94.9795L65.4586 109.632C65.8285 110.757 66.0164 111.935 66.015 113.12C66.015 119.209 61.0917 124.188 55 124.188C48.9083 124.188 43.9849 119.24 43.9849 113.12C43.9849 112.032 44.1405 110.982 44.4305 109.989L19.0231 95.2502C18.2974 96.0147 17.4673 96.6717 16.5576 97.2015C11.2552 100.246 4.53235 98.438 1.50219 93.1425C-1.52753 87.8466 0.271567 81.0919 5.54211 78.0159C6.45008 77.4905 7.42782 77.0976 8.44594 76.849V47.3521C7.41658 47.1041 6.42806 46.7086 5.51074 46.1778C0.23977 43.1338 -1.55933 36.3476 1.47082 31.0517C4.50098 25.7557 11.2548 23.9481 16.5258 26.9926C17.4449 27.5279 18.2828 28.1931 19.0137 28.9677L44.4353 14.2206C44.1356 13.1987 43.9839 12.1387 43.9849 11.0734C43.9849 4.95374 48.9083 0.00622559 55 0.00622559C61.0917 0.00622559 66.015 4.95331 66.015 11.0734C66.015 12.1734 65.856 13.235 65.56 14.237ZM62.9122 18.7796L88.3871 33.5574C87.9815 34.9821 87.8651 36.4742 88.045 37.945C88.2249 39.4158 88.6974 40.8352 89.4343 42.1188C90.985 44.8291 93.5111 46.626 96.3148 47.3262V76.8602C96.1718 76.8952 96.0295 76.9336 95.8882 76.9742L62.6162 19.0753C62.7167 18.9786 62.8156 18.8802 62.9122 18.78V18.7796ZM47.3906 19.0818L14.1191 76.9798C13.9752 76.938 13.8305 76.8991 13.6851 76.8632V47.3262C16.4888 46.626 19.015 44.8291 20.5657 42.1188C21.3041 40.8327 21.777 39.4103 21.9561 37.9365C22.1353 36.4628 22.0171 34.9678 21.6086 33.541L47.0761 18.7675C47.1788 18.8741 47.2837 18.979 47.3906 19.0813V19.0818ZM58.0778 21.7045L91.3416 79.5895C90.5797 80.32 89.9266 81.1571 89.4025 82.0749C88.8797 82.9872 88.4887 83.9696 88.2415 84.9925H21.7594C21.5118 83.9695 21.1205 82.9872 20.5975 82.0749C20.0716 81.1634 19.4197 80.3314 18.6613 79.6038L51.9316 21.7071C52.929 21.9956 53.962 22.1416 55 22.1405C56.0686 22.1405 57.1012 21.9886 58.0778 21.7045ZM63.146 105.665L88.4554 90.9826C88.3796 90.7429 88.3118 90.5007 88.2522 90.2565H21.7452C21.71 90.4002 21.6717 90.5427 21.6309 90.6847L47.0641 105.439C48.0911 104.366 49.3237 103.513 50.6875 102.931C52.0514 102.349 53.5183 102.05 55 102.053C56.5335 102.051 58.0505 102.37 59.4535 102.992C60.8565 103.614 62.1143 104.525 63.146 105.665V105.665Z" fill="#BE75BF"/>
</g>
<defs>
<clipPath id="clip0_12_206">
<rect width="110" height="124.348" fill="white"/>
</clipPath>
</defs>
</svg>
