<svg width="200" height="200" viewBox="0 0 200 200" fill="none" xmlns="http://www.w3.org/2000/svg">
<path d="M68.75 195V135H131.25V159.374C131.25 178.75 115.625 195 95.6248 195H68.75Z" fill="#F2EBDC"/>
<path d="M132.5 133.75V70H195V98.125C195 117.5 179.375 133.75 159.375 133.75H132.5Z" fill="#F2EBDC"/>
<path d="M131.25 70H68.75V133.125H131.25V70Z" fill="#F2EBDC"/>
<path d="M5 68.75V40.625C5 21.25 20.625 5 40.625 5H67.5V68.75H5Z" fill="#F2EBDC"/>
<path d="M132.5 68.75V5H159.375C178.75 5 195 20.625 195 40.625V68.75H132.5Z" fill="#F2EBDC"/>
<path d="M131.25 5H68.75V68.125H131.25V5Z" fill="#F2EBDC"/>
<path d="M5 159.374V135H67.5V195H40.625C20.625 195 5 179.374 5 159.374Z" fill="#F2EBDC"/>
<path d="M67.5 70H5V133.125H67.5V70Z" fill="#F2EBDC"/>
<path fill-rule="evenodd" clip-rule="evenodd" d="M0 159.375V40.625C0 18.125 18.125 0 40.625 0H159.375C181.875 0 200 18.125 200 40.625V98.1248C200 120.625 181.875 138.75 159.375 138.75H136.25V159.375C136.25 181.875 118.125 200 95.6248 200H40.625C18.125 200 0 181.875 0 159.375ZM62.5 63.125H10.625V40C10.625 23.75 23.75 10 40.625 10H62.5V63.125ZM159.375 128.75H137.5V74.9998H189.375V98.7496C189.375 115 176.25 128.75 159.375 128.75ZM95.6248 190H73.7498V140.625H125.625V160C125.625 176.25 112.5 190 95.6248 190ZM73.7498 128.75H125.625V74.9998H73.7498V128.75ZM137.5 63.125H189.375V40.625C189.375 23.75 175.625 10.625 159.375 10.625H137.5V63.125ZM125.625 63.125H73.7498V10H125.625V63.125ZM10 140V159.375C10 176.25 23.75 189.375 40 189.375H62.5V140H10ZM62.5 128.75H10V74.9998H62.5V128.75Z" fill="#403836"/>
</svg>
