<svg width="200" height="201" viewBox="0 0 200 201" fill="none" xmlns="http://www.w3.org/2000/svg">
<path d="M199.536 90.8267C199.811 93.854 200 96.9081 200 100.009C200 96.9081 199.811 93.8562 199.536 90.8267Z" fill="#F2EBDC"/>
<path d="M51.1793 90.2983C51.1793 90.2983 23.3694 192.764 134.834 193.656C169.807 180.637 195.577 148.718 199.483 110.237C199.753 107.575 199.833 104.86 199.893 102.14C199.904 101.425 200 100.729 200 100.009C200 96.9103 199.811 93.854 199.536 90.8267C170.088 206.755 39.8101 161.347 51.1793 90.2983Z" fill="#F2EBDC"/>
<path d="M108.814 52.2648C108.814 52.2648 5.03365 23.2822 6.6298 136.444C11.9497 150.119 20.2056 162.459 30.815 172.596C31.2609 173.017 31.7223 173.416 32.1726 173.831C35.1736 176.597 38.3406 179.178 41.6559 181.559C42.1708 181.927 42.6546 182.333 43.1718 182.692C46.6787 185.09 50.3354 187.261 54.1197 189.192C55.2187 189.759 56.3489 190.276 57.4635 190.804C60.72 192.337 64.0577 193.692 67.4618 194.861C68.2977 195.147 69.0958 195.503 69.9429 195.769C74.0239 197.016 78.1812 197.999 82.3889 198.711C83.6618 198.934 84.948 199.122 86.2366 199.3C90.6017 199.93 95.0036 200.272 99.4137 200.323C99.5831 200.323 99.7459 200.35 99.9153 200.35C103.241 200.35 106.525 200.172 109.764 199.853C-6.67887 172.083 37.5808 41.8765 108.814 52.2648Z" fill="#F2EBDC"/>
<path d="M149.267 105.93C149.267 105.93 173.82 2.41657 63.2975 7.04004C26.2361 21.6796 0 57.74 0 100C0.0344643 104.551 0.377816 109.094 1.02769 113.599C24.2878 -3.51326 156.801 34.4153 149.267 105.93Z" fill="#F2EBDC"/>
<path d="M96.1991 150.475C96.1991 150.475 200.16 164.047 193.653 65.2035C179.504 27.1568 142.971 0 100 0C93.9153 0.023514 87.8453 0.600295 81.865 1.72322C197.706 15.9436 167.598 151.487 96.1991 150.475Z" fill="#F2EBDC"/>
<path d="M128.86 100.011C128.86 105.551 127.217 110.967 124.139 115.574C121.06 120.18 116.685 123.771 111.566 125.89C106.448 128.01 100.815 128.564 95.3814 127.483C89.9476 126.401 84.9566 123.733 81.0396 119.814C77.1226 115.896 74.4556 110.904 73.3758 105.47C72.296 100.036 72.852 94.4038 74.9734 89.2857C77.0948 84.1676 80.6864 79.7936 85.2939 76.7168C89.9014 73.64 95.3178 71.9987 100.858 72.0005C108.286 72.0023 115.408 74.9542 120.66 80.2071C125.911 85.46 128.86 92.5836 128.86 100.011V100.011Z" fill="#F2EBDC"/>
</svg>
