<svg width="110" height="110" viewBox="0 0 110 110" fill="none" xmlns="http://www.w3.org/2000/svg">
<path d="M51.4017 0.0859094C51.1654 0.107392 50.4136 0.18258 49.7369 0.236285C34.13 1.64337 19.5113 10.0644 10.2524 23.0075C5.09668 30.2041 1.79915 38.3673 0.553175 47.0139C0.112788 50.0322 0.059082 50.9237 0.059082 55.0161C0.059082 59.1085 0.112788 60 0.553175 63.0183C3.53921 83.652 18.2224 100.988 38.1364 107.411C41.7025 108.561 45.4619 109.345 49.7369 109.817C51.4017 110 58.5983 110 60.2632 109.817C67.6423 109.001 73.8937 107.175 80.0591 104.028C81.0043 103.545 81.1869 103.416 81.058 103.308C80.9721 103.244 76.9442 97.841 72.1107 91.3104L63.3244 79.4415L52.3147 63.1471C46.2567 54.189 41.2728 46.8636 41.2299 46.8636C41.1869 46.8528 41.1439 54.0924 41.1225 62.9323C41.0902 78.4103 41.0795 79.0333 40.8862 79.3985C40.6069 79.9248 40.3921 80.1396 39.9409 80.3759C39.5972 80.5478 39.2965 80.58 37.6746 80.58H35.8163L35.3223 80.2685C35 80.0644 34.7637 79.7959 34.6026 79.4844L34.377 79.0011L34.3985 57.4651L34.4307 35.9184L34.7637 35.4994C34.9356 35.2739 35.3008 34.9839 35.5586 34.8442C35.9989 34.6294 36.1708 34.6079 38.029 34.6079C40.2202 34.6079 40.5854 34.6939 41.1547 35.3168C41.3158 35.4887 47.2771 44.4683 54.4093 55.2846C61.5414 66.101 71.2943 80.87 76.0849 88.1203L84.7852 101.3L85.2256 101.01C89.1246 98.4748 93.2492 94.8657 96.5145 91.1063C103.464 83.1257 107.943 73.3942 109.447 63.0183C109.887 60 109.941 59.1085 109.941 55.0161C109.941 50.9237 109.887 50.0322 109.447 47.0139C106.461 26.3802 91.7777 9.04402 71.8636 2.62082C68.3513 1.48226 64.6133 0.698154 60.4243 0.225544C59.3932 0.118133 52.2933 -1.97221e-05 51.4017 0.0859094V0.0859094ZM73.8937 33.319C74.4093 33.5768 74.8282 34.0709 74.9785 34.5864C75.0645 34.8657 75.086 40.8378 75.0645 54.2964L75.0323 73.609L71.6273 68.3888L68.2116 63.1686V49.13C68.2116 40.0537 68.2546 34.9516 68.319 34.7046C68.4909 34.1031 68.8668 33.6305 69.3824 33.3512C69.8228 33.1257 69.9839 33.1042 71.6703 33.1042C73.26 33.1042 73.5392 33.1257 73.8937 33.319V33.319Z" fill="#F2EBDC"/>
<path d="M84.2481 101.536C83.8722 101.772 83.754 101.933 84.087 101.751C84.3233 101.611 84.71 101.321 84.6455 101.31C84.6133 101.31 84.4307 101.418 84.2481 101.536ZM83.507 102.019C83.3136 102.17 83.3136 102.18 83.5499 102.062C83.6788 101.998 83.7863 101.923 83.7863 101.901C83.7863 101.815 83.7326 101.837 83.507 102.019ZM82.9699 102.342C82.7766 102.492 82.7766 102.503 83.0129 102.385C83.1418 102.32 83.2492 102.245 83.2492 102.223C83.2492 102.138 83.1955 102.159 82.9699 102.342ZM82.4329 102.664C82.2395 102.814 82.2395 102.825 82.4758 102.707C82.6047 102.642 82.7121 102.567 82.7121 102.546C82.7121 102.46 82.6584 102.481 82.4329 102.664ZM81.6165 103.093C81.2084 103.308 81.2299 103.394 81.638 103.19C81.8206 103.093 81.9603 102.997 81.9603 102.975C81.9603 102.9 81.9495 102.911 81.6165 103.093Z" fill="#F2EBDC"/>
</svg>
