<svg width="110" height="122" viewBox="0 0 110 122" fill="none" xmlns="http://www.w3.org/2000/svg">
<g clip-path="url(#clip0_12_202)">
<path d="M50.0494 1.54216C53.0402 -0.174479 56.9358 -0.182233 59.924 1.54216C74.9577 10.0603 89.996 18.5651 105.027 27.0884C107.854 28.6852 109.745 31.8402 109.717 35.1068V86.3551C109.738 89.757 107.66 92.9873 104.677 94.548C89.6927 103.019 74.7162 111.501 59.7346 119.972C56.6819 121.722 52.7081 121.587 49.7508 119.694C45.2586 117.082 40.7586 114.484 36.2659 111.875C35.3478 111.326 34.3129 110.889 33.6647 109.997C34.2378 109.222 35.2623 109.126 36.0949 108.788C37.9701 108.19 39.6923 107.23 41.415 106.299C41.8506 106 42.3824 106.114 42.8 106.382C46.6414 108.59 50.4489 110.863 54.3032 113.051C55.1255 113.527 55.958 112.895 56.6608 112.502C71.365 104.169 86.0872 95.8666 100.789 87.5307C101.333 87.268 101.635 86.6881 101.59 86.0898C101.601 69.184 101.593 52.2753 101.595 35.3696C101.658 34.6907 101.266 34.0665 100.654 33.7886C85.7216 25.3562 70.7971 16.9109 55.8674 8.47633C55.6087 8.29801 55.3023 8.20233 54.9884 8.20187C54.6745 8.20141 54.3678 8.29619 54.1086 8.47374C39.1789 16.9109 24.257 25.364 9.32734 33.7959C8.71731 34.0742 8.30791 34.6881 8.38051 35.3696C8.38309 52.2753 8.38051 69.184 8.38051 86.0924C8.35462 86.3843 8.41857 86.6772 8.56374 86.9316C8.7089 87.186 8.92832 87.3897 9.19244 87.5152C13.1765 89.7807 17.1657 92.0302 21.1523 94.2878C23.3983 95.5 26.1558 96.2203 28.6303 95.2916C30.8139 94.5063 32.3445 92.2718 32.3029 89.9469C32.3235 73.1398 32.2926 56.3302 32.3183 39.5257C32.2638 38.7796 32.9696 38.1631 33.693 38.2334C35.6073 38.2204 37.5242 38.2075 39.4384 38.2385C40.2375 38.2204 40.7873 39.0238 40.6885 39.7755C40.6808 56.689 40.7092 73.6029 40.6757 90.5164C40.6808 95.024 38.834 99.9288 34.6759 102.134C29.5535 104.795 23.2221 104.231 18.1615 101.68C13.7805 99.4869 9.5997 96.8992 5.29646 94.5502C2.30606 92.9981 0.238422 89.7548 0.259472 86.3556V35.1068C0.228111 31.7726 2.19436 28.5603 5.10959 26.9867C20.0912 18.5086 35.0703 10.0241 50.0494 1.54216Z" fill="#76BF75"/>
<path d="M63.1193 37.0422C69.6534 36.6205 76.6485 36.7924 82.5283 40.0202C87.0807 42.4937 89.6046 47.6849 89.6849 52.7564C89.5578 53.4405 88.8447 53.8178 88.1934 53.7709C86.2976 53.7683 84.4014 53.7967 82.5056 53.758C81.7014 53.789 81.234 53.0455 81.133 52.3325C80.5883 49.906 79.2686 47.5027 76.9909 46.3323C73.4944 44.5769 69.4403 44.6652 65.6277 44.7018C62.8444 44.85 59.8514 45.0917 57.4933 46.7329C55.683 47.9761 55.1332 50.4858 55.7793 52.507C56.3884 53.9583 58.0591 54.4265 59.4261 54.8582C67.3005 56.9233 75.645 56.7178 83.3691 59.4356C86.5669 60.5435 89.6952 62.6974 90.7899 66.0548C92.2217 70.5547 91.5941 75.9333 88.4013 79.5458C85.8122 82.5185 82.0412 84.1365 78.2801 85.0153C73.2766 86.134 68.0841 86.1625 63.0029 85.6658C58.2249 85.1196 53.2528 83.8608 49.5643 80.5964C46.4103 77.8502 44.8697 73.5714 45.0227 69.4416C45.0592 68.7441 45.7517 68.2578 46.418 68.3151C48.3271 68.2996 50.2362 68.2944 52.1453 68.3177C52.9079 68.263 53.4732 68.9238 53.5123 69.6445C53.8646 71.9564 54.7311 74.383 56.7416 75.7537C60.6216 78.2638 65.4902 78.0919 69.9331 78.1621C73.6138 77.9984 77.7457 77.9489 80.7494 75.5094C82.3342 74.118 82.8037 71.7901 82.3754 69.7875C81.9114 68.0967 80.1475 67.3088 78.6328 66.7936C70.8593 64.3278 62.4216 65.2226 54.7233 62.4342C51.598 61.3266 48.5758 59.2327 47.3751 56.0131C45.6997 51.4563 46.4674 45.8201 49.9948 42.3295C53.4341 38.8575 58.3989 37.5204 63.1193 37.0418V37.0422Z" fill="#76BF75"/>
</g>
<defs>
<clipPath id="clip0_12_202">
<rect width="110" height="121.478" fill="white"/>
</clipPath>
</defs>
</svg>
