<svg width="388" height="346" viewBox="0 0 388 346" fill="none" xmlns="http://www.w3.org/2000/svg">
<path d="M388 173.039C388 147.343 355.812 122.991 306.461 107.889C317.85 57.6027 312.788 17.5952 290.486 4.78644C285.345 1.78192 279.335 0.358728 272.77 0.358728V17.9905C276.408 17.9905 279.335 18.7021 281.786 20.0462C292.542 26.2134 297.208 49.6961 293.57 79.8994C292.7 87.3316 291.277 95.1592 289.537 103.145C274.036 99.3497 257.111 96.4243 239.317 94.5267C228.64 79.8994 217.568 66.6163 206.417 54.9935C232.199 31.0364 256.4 17.9114 272.85 17.9114V0.279663C251.101 0.279663 222.629 15.7767 193.842 42.6592C165.054 15.9348 136.583 0.595929 114.834 0.595929V18.2277C131.205 18.2277 155.485 31.2736 181.267 55.0726C170.195 66.6953 159.123 79.8994 148.604 94.5267C130.731 96.4243 113.806 99.3497 98.3049 103.224C96.4859 95.3173 95.1415 87.6479 94.1924 80.2947C90.4753 50.0914 95.0624 26.6087 105.739 20.3625C108.112 18.9393 111.196 18.3068 114.834 18.3068V0.674994C108.191 0.674994 102.18 2.09819 96.9605 5.10271C74.7371 17.9114 69.7546 57.8399 81.2222 107.968C32.0302 123.149 0 147.422 0 173.039C0 198.736 32.1883 223.088 81.5385 238.19C70.15 288.476 75.2116 328.484 97.5141 341.293C102.655 344.297 108.665 345.72 115.309 345.72C137.057 345.72 165.529 330.223 194.316 303.341C223.104 330.065 251.575 345.404 273.324 345.404C279.967 345.404 285.978 343.981 291.198 340.976C313.421 328.168 318.404 288.239 306.936 238.111C355.97 223.009 388 198.657 388 173.039V173.039ZM285.029 120.302C282.103 130.502 278.465 141.018 274.352 151.533C271.11 145.208 267.709 138.883 263.992 132.558C260.354 126.232 256.479 120.065 252.603 114.056C263.834 115.716 274.669 117.772 285.029 120.302ZM248.807 204.508C242.638 215.182 236.311 225.302 229.747 234.711C217.963 235.739 206.021 236.293 194 236.293C182.058 236.293 170.116 235.739 158.411 234.79C151.847 225.381 145.441 215.34 139.272 204.745C133.261 194.387 127.804 183.872 122.822 173.277C127.725 162.682 133.261 152.087 139.193 141.729C145.362 131.055 151.689 120.935 158.253 111.526C170.037 110.498 181.979 109.945 194 109.945C205.942 109.945 217.884 110.498 229.589 111.447C236.153 120.856 242.559 130.897 248.728 141.492C254.739 151.85 260.196 162.366 265.178 172.96C260.196 183.555 254.739 194.15 248.807 204.508ZM274.352 194.229C278.623 204.824 282.261 215.419 285.266 225.698C274.906 228.228 263.992 230.363 252.682 232.023C256.558 225.935 260.433 219.689 264.071 213.284C267.709 206.959 271.11 200.555 274.352 194.229ZM194.158 278.593C186.803 271.003 179.448 262.543 172.172 253.292C179.29 253.608 186.566 253.845 193.921 253.845C201.355 253.845 208.71 253.687 215.907 253.292C208.789 262.543 201.434 271.003 194.158 278.593ZM135.318 232.023C124.087 230.363 113.252 228.307 102.892 225.777C105.818 215.577 109.456 205.061 113.569 194.546C116.811 200.871 120.212 207.196 123.929 213.521C127.646 219.847 131.442 226.014 135.318 232.023ZM193.763 67.486C201.118 75.0764 208.473 83.5365 215.749 92.7872C208.631 92.4709 201.355 92.2338 194 92.2338C186.566 92.2338 179.211 92.3919 172.014 92.7872C179.132 83.5365 186.487 75.0764 193.763 67.486ZM135.238 114.056C131.363 120.144 127.488 126.39 123.85 132.795C120.212 139.12 116.811 145.445 113.569 151.771C109.298 141.176 105.66 130.581 102.655 120.302C113.015 117.851 123.929 115.716 135.238 114.056V114.056ZM63.6649 213.047C35.6682 201.108 17.5573 185.453 17.5573 173.039C17.5573 160.626 35.6682 144.892 63.6649 133.032C70.4664 130.106 77.9005 127.497 85.572 125.046C90.0799 140.543 96.0114 156.673 103.366 173.198C96.0905 189.643 90.2381 205.694 85.8092 221.112C77.9796 218.661 70.5455 215.972 63.6649 213.047ZM106.214 326.033C95.4578 319.866 90.7917 296.383 94.4297 266.18C95.2996 258.747 96.7232 250.92 98.4631 242.934C113.964 246.729 130.889 249.655 148.683 251.552C159.36 266.18 170.432 279.463 181.583 291.085C155.801 315.043 131.6 328.168 115.15 328.168C111.592 328.088 108.586 327.377 106.214 326.033V326.033ZM293.808 265.784C297.525 295.988 292.938 319.47 282.261 325.716C279.888 327.14 276.804 327.772 273.166 327.772C256.795 327.772 232.515 314.726 206.733 290.927C217.805 279.305 228.877 266.101 239.396 251.473C257.269 249.576 274.194 246.65 289.695 242.776C291.514 250.762 292.938 258.431 293.808 265.784V265.784ZM324.256 213.047C317.455 215.972 310.02 218.582 302.349 221.033C297.841 205.536 291.909 189.406 284.554 172.881C291.83 156.436 297.683 140.385 302.112 124.967C309.941 127.418 317.375 130.106 324.335 133.032C352.332 144.971 370.443 160.626 370.443 173.039C370.364 185.453 352.253 201.187 324.256 213.047V213.047Z" fill="#75B8BF"/>
<path d="M193.921 209.173C213.882 209.173 230.064 192.995 230.064 173.04C230.064 153.084 213.882 136.906 193.921 136.906C173.96 136.906 157.778 153.084 157.778 173.04C157.778 192.995 173.96 209.173 193.921 209.173Z" fill="#75B8BF"/>
</svg>
