<svg width="110" height="105" viewBox="0 0 110 105" fill="none" xmlns="http://www.w3.org/2000/svg">
<g clip-path="url(#clip0_12_211)">
<path d="M76.2185 72.7846C80.2777 72.3653 83.3573 68.8732 83.2172 64.6821C83.0776 60.4915 79.5778 57.1388 75.3784 57.1388H75.0987C70.7588 57.2786 67.3995 60.9105 67.5396 65.2409C67.6797 67.3364 68.5193 69.1523 69.7792 70.4096C65.0199 79.7693 57.741 86.6141 46.8227 92.3415C39.4037 96.253 31.7049 97.65 24.0062 96.6724C17.707 95.8341 12.8077 93.0405 9.7277 88.4301C5.24863 81.5852 4.82883 74.1812 8.60836 66.7777C11.2681 61.4692 15.467 57.5577 18.1268 55.602C17.5669 53.786 16.7269 50.7129 16.3071 48.478C-3.99009 63.1458 -1.8902 82.9822 4.26894 92.3415C8.88809 99.3266 18.2669 103.657 28.6254 103.657C31.4248 103.657 34.2242 103.377 37.0241 102.679C54.9416 99.1868 68.5197 88.5699 76.2185 72.7846V72.7846ZM100.855 55.4626C90.2164 43.0297 74.5388 36.1849 56.6213 36.1849H54.3817C53.1219 33.6704 50.4621 31.9938 47.5226 31.9938H47.2425C42.9035 32.1336 39.5442 35.7655 39.6838 40.0963C39.8239 44.2869 43.3233 47.6397 47.5226 47.6397H47.8023C50.8819 47.4999 53.5417 45.5442 54.6614 42.8899H57.1811C67.8198 42.8899 77.8981 45.9631 86.9972 51.9701C93.9959 56.5801 99.0353 62.5871 101.835 69.8508C104.214 75.718 104.074 81.4454 101.555 86.335C97.6354 93.7386 91.0564 97.7898 82.3776 97.7898C76.7783 97.7898 71.4592 96.1132 68.6594 94.856C67.1198 96.253 64.32 98.4879 62.3602 99.8853C68.3797 102.679 74.5388 104.216 80.4178 104.216C93.8559 104.216 103.795 96.8117 107.574 89.4082C111.633 81.3057 111.353 67.3364 100.855 55.4626V55.4626ZM29.7451 75.1589C29.8852 79.3499 33.3846 82.7022 37.5839 82.7022H37.8641C42.2035 82.5629 45.5628 78.9306 45.4227 74.6002C45.2831 70.4091 41.7833 67.0568 37.5839 67.0568H37.3042C37.0241 67.0568 36.6038 67.0568 36.3245 67.1962C30.5852 57.6971 28.2056 47.3601 29.0456 36.1844C29.6051 27.8028 32.4049 20.5386 37.3042 14.5316C41.3635 9.3629 49.2023 6.84845 54.5218 6.70909C69.3594 6.42952 75.6581 24.869 76.0784 32.273C77.8981 32.6919 80.9777 33.67 83.0776 34.3685C81.3975 11.7384 67.3995 0.00402832 53.9619 0.00402832C41.3635 0.00402832 29.7451 9.08419 25.1256 22.4947C18.6867 40.3755 22.886 57.5577 30.7248 71.1081C30.0253 72.0857 29.6051 73.6225 29.7451 75.1593V75.1589Z" fill="#9675BF"/>
</g>
<defs>
<clipPath id="clip0_12_211">
<rect width="110" height="104.634" fill="white"/>
</clipPath>
</defs>
</svg>
