<svg width="110" height="110" viewBox="0 0 110 110" fill="none" xmlns="http://www.w3.org/2000/svg">
<path d="M108.962 53.6509L104.407 50.8283C104.368 50.3841 104.325 49.941 104.277 49.5L108.2 45.8471C108.598 45.4756 108.777 44.9256 108.669 44.3943C108.564 43.8599 108.189 43.4199 107.68 43.232L102.667 41.3641C102.542 40.9304 102.41 40.4997 102.275 40.067L105.399 35.7292C105.717 35.2882 105.783 34.7143 105.575 34.2141C105.368 33.7129 104.914 33.3538 104.382 33.2656L99.0996 32.4064C98.8942 32.0058 98.6804 31.6115 98.4645 31.2234L100.685 26.346C100.913 25.85 100.866 25.2771 100.563 24.8205C100.261 24.3681 99.7493 24.1035 99.2034 24.1242L93.8383 24.311C93.5612 23.9644 93.279 23.6209 92.9915 23.2837L94.2264 18.0638C94.351 17.5336 94.1943 16.9742 93.8082 16.5903C93.4253 16.2063 92.8691 16.0475 92.3346 16.172L87.1148 17.407C86.7765 17.1205 86.433 16.8372 86.0854 16.5602L86.2732 11.1951C86.294 10.6523 86.0293 10.1366 85.5769 9.83563C85.1234 9.53261 84.5495 9.48695 84.0514 9.71214L79.1844 11.9329C78.7911 11.717 78.3968 11.5033 78.0014 11.2968L77.1401 6.01469C77.0529 5.47922 76.6939 5.02469 76.1916 4.82129C75.6904 4.61271 75.1124 4.68016 74.6765 4.99771L70.3388 8.12129C69.9112 7.98535 69.4816 7.85459 69.052 7.73006L67.1841 2.7178C66.9942 2.20723 66.5542 1.83261 66.0218 1.72676C65.4884 1.62195 64.9426 1.7994 64.569 2.19582L60.9161 6.11846C60.4751 6.06969 60.0309 6.02506 59.5878 5.98874L56.7652 1.42271C56.4798 0.960914 55.9744 0.679688 55.4265 0.679688C54.8786 0.679688 54.3784 0.960914 54.0982 1.42271L51.2756 5.98874C50.8314 6.02506 50.3873 6.06969 49.9473 6.11846L46.2944 2.19582C45.924 1.7994 45.374 1.62195 44.8416 1.72676C44.3072 1.83365 43.8672 2.20723 43.6793 2.7178L41.8114 7.73006C41.3776 7.85459 40.948 7.98639 40.5246 8.12129L36.1869 4.99771C35.7459 4.67912 35.1709 4.61167 34.6718 4.82129C34.1706 5.02884 33.8105 5.48337 33.7233 6.01469L32.862 11.2968C32.4635 11.5033 32.0692 11.716 31.679 11.9329L26.812 9.71214C26.317 9.48591 25.7431 9.53261 25.2865 9.83563C24.8341 10.1366 24.5694 10.6523 24.5902 11.1951L24.777 16.5602C24.4304 16.8372 24.0869 17.1205 23.7475 17.407L18.5277 16.172C17.9975 16.0486 17.4381 16.2063 17.0542 16.5903C16.6681 16.9753 16.5114 17.5304 16.6359 18.0638L17.8605 23.2837C17.5751 23.622 17.2928 23.9644 17.0158 24.311L11.6507 24.1242C11.11 24.1087 10.5922 24.3681 10.2912 24.8205C9.98821 25.2709 9.94255 25.8479 10.1677 26.346L12.3885 31.2234C12.1726 31.6146 11.9589 32.0089 11.7524 32.4064L6.47028 33.2656C5.93377 33.3528 5.48132 33.7119 5.27689 34.2141C5.06934 34.7174 5.13679 35.2934 5.4533 35.7292L8.57689 40.067C8.44094 40.4955 8.30915 40.9262 8.18462 41.3641L3.17236 43.232C2.66387 43.422 2.28925 43.862 2.1834 44.3943C2.07755 44.9277 2.255 45.4736 2.65245 45.8471L6.5751 49.5C6.52632 49.941 6.48274 50.3852 6.44538 50.8283L1.88972 53.6509C1.42792 53.9363 1.1467 54.4406 1.1467 54.9896C1.1467 55.5386 1.42792 56.0377 1.88972 56.3179L6.44538 59.1405C6.48274 59.5847 6.52632 60.0278 6.5751 60.4688L2.65245 64.1217C2.255 64.4921 2.07755 65.0421 2.1834 65.5745C2.28925 66.1089 2.66387 66.5479 3.17236 66.7368L8.18462 68.6047C8.30915 69.0385 8.44094 69.4691 8.57689 69.9019L5.4533 74.2396C5.13575 74.6817 5.0683 75.2555 5.27689 75.7547C5.48547 76.258 5.93896 76.6171 6.48066 76.7032L11.7627 77.5624C11.9692 77.963 12.1809 78.3573 12.3989 78.7455L10.1781 83.6124C9.95189 84.1074 9.99859 84.6813 10.3016 85.1379C10.6046 85.5914 11.1204 85.856 11.661 85.8342L17.0158 85.6464C17.2949 85.9951 17.5761 86.3365 17.8626 86.6758L16.638 91.8956C16.5135 92.4249 16.6702 92.9749 17.0562 93.3588C17.4392 93.7459 17.9964 93.9005 18.5298 93.776L23.7496 92.5515C24.089 92.84 24.4325 93.1202 24.7791 93.3962L24.5923 98.7613C24.5715 99.304 24.8361 99.8198 25.2886 100.121C25.739 100.423 26.3159 100.468 26.8141 100.242L31.681 98.0214C32.0733 98.2393 32.4676 98.451 32.8641 98.6575L33.7254 103.94C33.8126 104.477 34.1716 104.932 34.6739 105.143C35.1751 105.352 35.7531 105.285 36.189 104.968L40.5267 101.844C40.9553 101.98 41.3859 102.113 41.8239 102.238L43.6918 107.25C43.8817 107.758 44.3217 108.135 44.8541 108.239C45.3875 108.347 45.9333 108.168 46.3069 107.77L49.9597 103.847C50.4008 103.898 50.8449 103.941 51.288 103.98L54.1107 108.536C54.395 108.995 54.9004 109.279 55.439 109.279C55.9775 109.279 56.4871 108.996 56.7776 108.536L59.6003 103.98C60.0444 103.941 60.4876 103.898 60.9286 103.847L64.5814 107.77C64.9519 108.168 65.5019 108.347 66.0343 108.239C66.5687 108.134 67.0087 107.758 67.1965 107.25L69.0644 102.238C69.4982 102.113 69.9289 101.98 70.3616 101.844L74.6994 104.968C75.1404 105.285 75.7153 105.352 76.2144 105.143C76.7167 104.937 77.0758 104.481 77.1629 103.94L78.0243 98.6575C78.4227 98.451 78.8171 98.2362 79.2073 98.0214L84.0743 100.242C84.5693 100.468 85.1431 100.423 85.5997 100.121C86.0522 99.8177 86.3158 99.304 86.296 98.7613L86.1093 93.3962C86.4559 93.1191 86.7993 92.84 87.1376 92.5515L92.3575 93.776C92.8877 93.9005 93.4471 93.7459 93.831 93.3588C94.2171 92.9738 94.3738 92.4207 94.2492 91.8956L93.0247 86.6758C93.3111 86.3365 93.5934 85.9951 93.8694 85.6464L99.2345 85.8342C99.7752 85.856 100.293 85.5914 100.594 85.1379C100.897 84.6855 100.944 84.1095 100.716 83.6124L98.4957 78.7455C98.7126 78.3522 98.9253 77.9578 99.1308 77.5624L104.413 76.7032C104.95 76.6171 105.403 76.258 105.606 75.7547C105.814 75.2535 105.748 74.6755 105.43 74.2396L102.306 69.9019C102.441 69.4733 102.573 69.0426 102.698 68.6047L107.711 66.7368C108.22 66.5458 108.596 66.1069 108.7 65.5745C108.808 65.0411 108.629 64.4953 108.231 64.1217L104.308 60.4688C104.356 60.0278 104.399 59.5837 104.438 59.1405L108.993 56.3179C109.455 56.0336 109.736 55.5282 109.736 54.9896C109.736 54.451 109.456 53.9415 108.994 53.6509H108.962ZM78.4528 91.5283C76.7094 91.1526 75.6094 89.4321 75.983 87.6887C76.3556 85.9453 78.0689 84.8349 79.8123 85.2085C81.5557 85.581 82.6661 87.3047 82.2925 89.0481C81.9189 90.7915 80.2066 91.9019 78.4632 91.5283H78.4528ZM76.9066 81.0471C75.3189 80.7068 73.7519 81.7175 73.4198 83.3094L71.801 90.8641C66.8094 93.1264 61.216 94.3924 55.4047 94.3924C49.4274 94.3924 43.7821 93.0745 38.6972 90.7085L37.0783 83.1537C36.7379 81.566 35.1792 80.549 33.5915 80.8915L26.9189 82.3236C25.684 81.0472 24.5321 79.6877 23.4736 78.2556H55.9547C56.3221 78.2556 56.567 78.1892 56.567 77.8551V66.3362C56.567 66.0021 56.3221 65.9356 55.9547 65.9356H46.4594V58.6611H56.7227C57.6597 58.6611 61.7349 58.9288 63.0321 64.1404C63.4399 65.7385 64.3396 70.9479 64.9519 72.6187C65.5621 74.4866 68.0443 78.2224 70.6906 78.2224H86.8793C87.0629 78.2224 87.2591 78.2017 87.4656 78.1643C86.3448 79.6898 85.1099 81.1322 83.792 82.4813L76.9637 81.0181L76.9066 81.0471ZM31.9726 91.3726C30.2292 91.7483 28.517 90.6379 28.1434 88.8924C27.7709 87.149 28.8781 85.4264 30.6236 85.0528C32.367 84.6803 34.0792 85.7906 34.4528 87.533C34.8254 89.2764 33.7171 90.999 31.9726 91.3726ZM19.6236 41.4575C20.3459 43.0868 19.6111 44.9962 17.984 45.7226C16.3547 46.4459 14.4557 45.7102 13.7292 44.083C13.0028 42.4558 13.7417 40.5443 15.3689 39.8179C16.9981 39.0956 18.8972 39.8303 19.6236 41.4575ZM15.8358 50.4236L22.7887 47.3311C24.2726 46.6721 24.9472 44.9339 24.283 43.45L22.8509 40.2122H28.4755V65.533H17.1642C16.1793 62.067 15.6491 58.4141 15.6491 54.6368C15.6491 53.1943 15.7269 51.7726 15.8763 50.3717L15.8358 50.4236ZM46.3453 47.9641V40.4924H59.7321C60.4242 40.4924 64.6198 41.2925 64.6198 44.4254C64.6198 47.0302 61.4028 47.9641 58.7566 47.9641H46.3038H46.3453ZM95.0151 54.6887C95.0151 55.6807 94.9788 56.6604 94.9061 57.6358H90.8278C90.42 57.6358 90.256 57.9036 90.256 58.3031V60.171C90.256 64.571 87.7759 65.5361 85.5966 65.7748C83.5211 66.0083 81.2277 64.9072 80.9476 63.6371C79.723 56.7569 77.6891 55.2937 74.4721 52.7408C78.4674 50.2087 82.6183 46.4625 82.6183 41.4295C82.6183 36.0229 78.9136 32.6191 76.3919 30.9484C72.8428 28.6135 68.9202 28.1465 67.8617 28.1465H25.7296C31.4475 21.7748 39.2202 17.2503 47.9372 15.5899L52.9079 20.7993C54.0287 21.972 55.8862 22.0238 57.0693 20.8948L62.6315 15.5816C74.2542 17.7504 84.1127 24.9938 89.8202 34.9872L86.0117 43.5797C85.3548 45.0636 86.0252 46.8071 87.506 47.4608L94.8325 50.7193C94.9591 52.0165 95.0255 53.3344 95.0255 54.6627L95.0151 54.6887ZM52.883 11.2075C54.1698 9.97261 56.2142 10.0245 57.4387 11.3123C58.6632 12.5991 58.6217 14.6435 57.3318 15.8784C56.045 17.1133 54.0007 17.0614 52.7761 15.7725C51.5516 14.4857 51.5931 12.4414 52.883 11.2065V11.2075ZM90.6566 41.6132C91.3778 39.9839 93.2821 39.2471 94.9113 39.9736C96.5406 40.6958 97.2774 42.6094 96.5509 44.2387C95.8297 45.8679 93.9255 46.6047 92.2962 45.8783C90.667 45.156 89.9302 43.2424 90.6566 41.6132Z" fill="#F2EBDC"/>
</svg>
