<svg width="110" height="110" viewBox="0 0 110 110" fill="none" xmlns="http://www.w3.org/2000/svg">
<path d="M0 55V0H110V110H0" fill="#75B8BF"/>
<path d="M24.1175 55.1925V59.675H38.4175V100.375H48.565V59.675H62.8651V55.275C62.8651 52.8 62.8651 50.7925 62.7551 50.7375C62.7551 50.655 54.0375 50.6275 43.45 50.6275L24.2 50.71V55.22L24.1175 55.1925V55.1925ZM88.3851 50.6C91.1901 51.26 93.3351 52.525 95.2601 54.5325C96.2776 55.6325 97.7901 57.5575 97.9001 58.0525C97.9001 58.2175 93.1426 61.435 90.2551 63.2225C90.1451 63.305 89.7051 62.8375 89.2651 62.1225C87.8351 60.0875 86.3776 59.2075 84.0951 59.0425C80.7951 58.8225 78.5951 60.555 78.5951 63.4425C78.5951 64.3225 78.7601 64.8175 79.0901 65.5325C79.8326 67.045 81.2076 67.9525 85.4701 69.8225C93.3351 73.205 96.7451 75.4325 98.8076 78.6225C101.145 82.1975 101.668 87.8076 100.1 92.0151C98.3401 96.6076 94.0501 99.7151 87.9176 100.733C85.9926 101.063 81.5926 101.008 79.5301 100.65C75.1301 99.8251 70.9226 97.6251 68.3376 94.7926C67.3201 93.6926 65.3676 90.7501 65.4776 90.5576L66.5226 89.8976L70.6476 87.5051L73.7551 85.69L74.4701 86.6526C75.3776 88.0826 77.4126 90.0076 78.5951 90.6676C82.1701 92.5101 86.9551 92.2626 89.3201 90.1176C90.3376 89.1826 90.7776 88.1926 90.7776 86.8176C90.7776 85.5526 90.5851 84.975 89.9526 84.0125C89.0726 82.8025 87.3126 81.8125 82.3626 79.6125C76.6701 77.1925 74.2501 75.6525 71.9951 73.2875C70.7026 71.8575 69.5201 69.63 68.9701 67.7875C68.5576 66.1925 68.4201 62.2875 68.8051 60.72C69.9876 55.22 74.1401 51.37 80.0801 50.27C82.0051 49.885 86.5426 50.05 88.4401 50.545L88.3851 50.6V50.6Z" fill="#F2EBDC"/>
</svg>
