<svg width="110" height="110" viewBox="0 0 110 110" fill="none" xmlns="http://www.w3.org/2000/svg">
<g clip-path="url(#clip0_12_217)">
<path d="M67.5817 0C67.5817 0.194118 67.5817 0.388235 67.5817 0.593137C67.5817 7.5598 61.9343 13.2054 54.9694 13.2054C48.0028 13.2054 42.3572 7.55801 42.3572 0.593137C42.3572 0.388235 42.3572 0.194118 42.3572 0L0 0V110H110V0H67.5817Z" fill="#758ABF"/>
<path d="M25.5516 59.2795H32.8418L37.8188 85.7856H37.9087L43.8904 59.2795H50.7096L56.1126 86.1109H56.2186L61.8912 59.2795H69.0412L59.7505 98.2271H52.516L47.158 71.721H47.0178L41.2823 98.2271H33.9131L25.5516 59.2795ZM77.2606 59.2795H88.7531L100.166 98.2271H92.6462L90.1641 89.5601H77.0719L75.1559 98.2271H67.8315L77.2606 59.2795ZM81.6355 68.8794L78.4559 83.1686H88.3523L84.7018 68.8794H81.6355Z" fill="#F2EBDC"/>
</g>
<defs>
<clipPath id="clip0_12_217">
<rect width="110" height="110" fill="white"/>
</clipPath>
</defs>
</svg>
