<svg width="110" height="110" viewBox="0 0 110 110" fill="none" xmlns="http://www.w3.org/2000/svg">
<g clip-path="url(#clip0_12_213)">
<path d="M55 0L103.611 27.5V82.5L55 110L6.38918 82.5V27.5L55 0Z" fill="#F2EBDC"/>
<path d="M94.93 80.6024L56.6042 102.282V85.3966L80.4834 72.2608L94.93 80.6024ZM97.5517 78.2283V32.89L83.5267 40.9841V70.1249L97.5517 78.2283ZM14.9142 80.6024L53.24 102.282V85.3966L29.3608 72.2608L14.9142 80.6024V80.6024ZM12.2925 78.2283V32.89L26.3175 40.9841V70.1249L12.2925 78.2283V78.2283ZM13.9333 29.9566L53.24 7.71832V24.0441L28.0592 37.895L27.8667 38.005L13.9333 29.9566V29.9566ZM95.9109 29.9566L56.6042 7.71832V24.0441L81.785 37.895L81.9775 38.005L95.9109 29.9566V29.9566Z" fill="#75B8BF"/>
<path d="M53.24 81.5558L29.6817 68.6033V42.9367L53.24 56.54V81.5558ZM56.6041 81.5558L80.1624 68.6033V42.9367L56.6041 56.54V81.5558ZM31.2767 39.9667L54.9266 26.9592L78.5766 39.9667L54.9266 53.625L31.2767 39.9667" fill="#75B8BF"/>
</g>
<defs>
<clipPath id="clip0_12_213">
<rect width="110" height="110" fill="white"/>
</clipPath>
</defs>
</svg>
